# xmcd CD database file
#
# Track frame offsets:
#	150
#	12810
#	28457
#	37892
#	49615
#	63300
#	78925
#	94207
#	108560
#	120592
#	134407
#	150080
#	162765
#	176255
#
# Disc length: 2515 seconds
#
# Revision: 0
# Processed by: cddbd v1.5.2PL0 Copyright (c) Steve Scherf et al.
# Submitted via: CDex 1.70beta2
#
DISCID=a209d10e
DTITLE=Various Artist -  - Germany is' schee - Marianne and Michael
DYEAR=1996
DGENRE=Volksmusik
TTITLE0=Germany is' schee 
TTITLE1=Kuscheln erlaubt
TTITLE2=Rund samma, g'sund samma
TTITLE3=Leben
TTITLE4=Sierra Madre del Sur
TTITLE5=Es ist schön, bei dir zu sein 
TTITLE6=Er sieht nie die Farben dieser Welt
TTITLE7=Die boarischen Berge
TTITLE8=Wann's im Frühjahr aper wird
TTITLE9=Endlich a Wunder
TTITLE10=Mariandl
TTITLE11=Kleine Kinder, kleine Sorgen
TTITLE12=Glocken der Heimat
TTITLE13=Knickerbocker
EXTD=YEAR: 1996
EXTT0=
EXTT1=
EXTT2=
EXTT3=
EXTT4=
EXTT5=
EXTT6=
EXTT7=
EXTT8=
EXTT9=
EXTT10=
EXTT11=
EXTT12=
EXTT13=
PLAYORDER=
